<svg xmlns="http://www.w3.org/2000/svg" xmlns:xlink="http://www.w3.org/1999/xlink" width="900" height="900" viewBox="0 0 900 900"><path fill="#FDFDFD" d="M382.537 234.785C409.282 234.116 437.983 234.621 464.875 234.629L464.893 372.975L464.91 412.195C464.911 418.946 464.898 425.719 464.827 432.449C464.246 487.779 427.456 535.062 373.882 549.061C361.925 552.185 351.98 553.386 339.656 554.349C340.104 560.617 339.838 570.488 339.847 576.992C339.97 589.538 339.893 602.085 339.617 614.628C340.868 613.024 342.224 611.408 343.514 609.825C346.066 606.737 348.862 603.857 351.875 601.216C384.471 572.614 436.677 581.89 462.968 614.037C485.396 641.461 488.179 670.951 486.566 704.421C484.014 757.4 445.352 801.564 390.071 796.57C373.325 795.093 360.339 790.519 348.654 777.898C345.488 774.479 343.091 771.091 340.176 767.664L339.63 767.03C340.103 774.988 339.878 784.782 339.89 792.885L289.06 792.866C289.443 765.491 289.122 737.307 289.125 709.866L289.176 553.388C286.641 553.203 284.107 552.994 281.575 552.761C246.303 549.433 213.179 534.459 190.167 506.766C160.219 470.724 163.492 433.24 163.528 389.589L163.534 305.904L163.572 258.584C163.577 253.195 163.231 240.182 163.695 235.288L164.571 234.754C191.521 234.327 219.245 234.62 246.233 234.668C246.111 236.949 246.087 239.509 246.078 241.815C245.921 283.335 246.193 324.879 246.141 366.397L246.067 406.472C246.042 430.551 245.307 453.232 263.716 471.719C287.868 496.042 340.965 495.739 365.244 471.812C383.119 454.197 382.527 431.156 382.53 408.036L382.515 370.81L382.537 234.785ZM387.625 754.759C426.185 752.09 435.64 716.279 433.707 683.11C432.771 667.049 427.419 648.676 414.707 637.945C406.039 630.596 394.84 626.927 383.504 627.724C344.383 629.971 335.586 668.081 337.739 700.923C339.731 731.292 354.082 755.948 387.625 754.759Z" transform="scale(0.878906 0.878906)"/><path fill="#FDFDFD" d="M600.74 584.692C662.681 580.553 708.819 620.188 712.91 682.205C716.94 743.297 683.79 792.32 620.113 796.537C593.338 798.554 562.862 791.418 542.076 773.909C519.541 755.311 509.539 729.817 506.971 701.259C501.567 641.15 538.736 589.574 600.74 584.692ZM614.604 754.458C653.074 750.119 662.66 713.62 659.617 679.963C658.267 665.04 652.217 647.15 640.088 637.465C630.726 629.962 618.783 626.452 606.85 627.697C568.736 630.952 558.715 668.553 561.216 701.184C562.437 717.123 566.884 733.325 579.521 744.141C590.527 753.356 600.791 755.03 614.604 754.458Z" transform="scale(0.878906 0.878906)"/><path fill="#FDFDFD" d="M579.605 234.698C596.972 234.378 615.139 234.647 632.569 234.645C632.051 273.749 632.424 313.555 632.424 352.704L632.481 543.572C609.021 543.374 585.56 543.376 562.1 543.579C562.541 539.168 562.374 531.165 562.382 526.564L562.397 497.625L562.307 311.089C540.588 323.186 519.661 335.836 497.537 347.543L497.549 286.303C505.178 281.21 574.454 235.863 579.605 234.698Z" transform="scale(0.878906 0.878906)"/><path fill="#FDFDFD" d="M758.514 542.143L809.655 542.117C809.786 556.535 810.371 575.289 809.493 589.45C823.79 589.428 840.64 589.914 854.639 589.231C855.228 592.86 854.984 598.643 855.026 602.433C855.126 611.388 854.781 620.504 855.108 629.452L809.663 629.489C810.217 638.009 809.907 648.926 809.911 657.675L809.904 707.929C809.904 717.116 809.609 728.723 810.504 737.626C817.399 756.851 839.357 752.171 854.854 748.09C854.606 762.815 854.916 777.754 854.732 792.536C816.735 797.335 771.959 799.055 760.607 752.75C757.186 738.795 758.594 716.285 758.598 701.394L758.604 629.401C746.979 629.535 735.119 629.424 723.476 629.433C723.389 616.011 723.396 602.589 723.498 589.167C731.474 589.93 749.753 589.415 758.585 589.467C758.642 573.692 758.619 557.917 758.514 542.143Z" transform="scale(0.878906 0.878906)"/><path fill="#D1CFD7" d="M854.639 589.231C855.228 592.86 854.984 598.643 855.026 602.433C855.126 611.388 854.781 620.504 855.108 629.452L809.663 629.489C810.217 638.009 809.907 648.926 809.911 657.675L809.904 707.929C809.904 717.116 809.609 728.723 810.504 737.626C808.193 732.541 808.956 704.296 808.958 697.094L808.886 628.91C824.036 628.979 839.187 628.918 854.336 628.727L854.206 604.408C854.192 600.359 854.028 593.043 854.639 589.231Z" transform="scale(0.878906 0.878906)"/></svg>